<?xml version="1.0" encoding="utf-8"?>
<!-- Generator: Adobe Illustrator 24.1.0, SVG Export Plug-In . SVG Version: 6.00 Build 0)  -->
<svg version="1.1" id="レイヤー_1" xmlns="http://www.w3.org/2000/svg" xmlns:xlink="http://www.w3.org/1999/xlink" x="0px"
	 y="0px" viewBox="0 0 496 157" style="enable-background:new 0 0 496 157;" xml:space="preserve">
<style type="text/css">
	.st0{fill:#231815;}
	.st1{fill:url(#SVGID_1_);}
	.st2{fill:url(#SVGID_2_);}
</style>
<g>
	<path class="st0" d="M66.75,16.72c29.03,0,43.54,9.89,43.54,29.66c0,3.31-0.42,6.88-1.26,10.69l-6.32,30.11
		c-2.89,13.95-9.15,24.29-18.79,31.01c-9.64,6.73-23.19,10.09-40.65,10.09c-17.46,0-29.63-3.36-36.49-10.09
		c-4.7-4.62-7.05-10.99-7.05-19.12c0-3.61,0.48-7.58,1.44-11.89L7.5,57.06C13.16,30.17,32.91,16.72,66.75,16.72z M48.15,104.94
		c6.02,0,10.84-1.3,14.45-3.91c3.61-2.61,6.14-7.43,7.59-14.45l6.14-28.91c0.36-2.01,0.54-3.81,0.54-5.42
		c0-8.13-4.94-12.19-14.81-12.19c-12.41,0.2-19.81,6.07-22.22,17.61l-6.14,28.91c-0.48,2.51-0.72,5.12-0.72,7.83
		C32.97,101.43,38.03,104.94,48.15,104.94z"/>
	<path class="st0" d="M167.65,40.94c10.24,0,17.31,2.71,21.23,8.13c2.81,3.71,4.21,8.43,4.21,14.15c0,2.31-0.25,4.77-0.75,7.38
		l-3.01,17.61c-1.71,9.54-5.37,16.79-10.99,21.75c-5.62,4.97-12.64,7.45-21.07,7.45c-8.43,0-14.3-2.26-17.62-6.77l-8.13,46.52
		h-25.59L126.1,42.89h23.18l-0.75,4.07C153.25,42.94,159.62,40.94,167.65,40.94z M152,95.74c2.81,0,5.42-0.9,7.83-2.71
		c2.41-1.81,3.92-4.52,4.52-8.13l1.96-11.29c0.2-1,0.3-2.26,0.3-3.76s-0.65-3.11-1.96-4.82c-1.3-1.71-3.56-2.56-6.77-2.56
		c-5.22,0-8.63,1.26-10.24,3.76l-4.52,25.29C144.52,94.33,147.48,95.74,152,95.74z"/>
	<path class="st0" d="M229.82,117.41c-20.88,0-31.31-7.23-31.31-21.68c0-2.01,0.2-4.16,0.6-6.47l3.16-18.67
		c1.7-9.63,6.14-17.03,13.32-22.21c7.17-5.17,16.68-7.75,28.53-7.75c20.17,0,30.26,7.63,30.26,22.88c0,2.21-0.2,4.62-0.6,7.23
		l-1.81,10.69h-45.92l-0.6,3.46c-0.2,1.2-0.3,2.31-0.3,3.31c0,5.52,3.26,8.28,9.78,8.28c2.41,0,4.47-0.75,6.17-2.26
		c1.7-1.51,2.71-3.26,3.01-5.27l24.99,0.3C265.8,108.03,252.71,117.41,229.82,117.41z M247.89,72.25c0.4-1.71,0.6-3.29,0.6-4.74
		c0-1.45-0.65-2.94-1.96-4.44c-1.3-1.51-3.39-2.26-6.25-2.26s-5.47,0.96-7.83,2.86c-2.36,1.91-3.99,4.77-4.89,8.58H247.89z"/>
	<path class="st0" d="M355.53,58.25c0,3.41-0.58,6.73-1.73,9.94c-1.16,3.21-2.28,5.57-3.39,7.08l-1.65,2.11h-22.73
		c2.51-2.31,3.76-5.17,3.76-8.58c0-1.81-0.58-3.29-1.73-4.44c-1.16-1.15-2.74-1.73-4.74-1.73c-3.41,0-6.38,1.71-8.88,5.12
		L306,115.31h-25.59l12.8-72.41h23.79l-1.81,10.09c5.72-8.13,12.65-12.19,20.78-12.19c6.52,0,11.42,1.56,14.68,4.67
		C353.9,48.56,355.53,52.83,355.53,58.25z"/>
	<linearGradient id="SVGID_1_" gradientUnits="userSpaceOnUse" x1="389.8806" y1="42.1124" x2="419.0519" y2="122.26">
		<stop  offset="0" style="stop-color:#6FC2AF"/>
		<stop  offset="0.3228" style="stop-color:#293785"/>
		<stop  offset="1" style="stop-color:#46A76C"/>
	</linearGradient>
	<path class="st1" d="M432.47,92.73c0,2.61,1.33,3.92,3.99,3.92c2.66,0,4.89-0.5,6.7-1.51l-0.75,17.01
		c-4.82,3.92-10.24,5.87-16.26,5.87c-11.04,0-17.16-4.01-18.37-12.04c-5.02,8.03-12.4,12.04-22.13,12.04
		c-16.46,0-24.69-7.08-24.69-21.23c0-2.41,0.25-5.07,0.75-7.98l3.16-17.61c1.61-9.03,5.29-16.23,11.07-21.6
		c5.77-5.37,13.3-8.05,22.58-8.05c9.28,0,15.58,2.16,18.9,6.47l0.75-4.52h22.89l-8.43,47.42C432.52,91.53,432.47,92.13,432.47,92.73
		z M387.91,85.5c-0.2,0.9-0.3,2.16-0.3,3.76c0,1.61,0.75,3.19,2.26,4.74c1.51,1.56,4.04,2.33,7.6,2.33c3.56,0,6.65-1.4,9.26-4.21
		l4.52-25.29c-1.11-2.51-3.71-3.76-7.83-3.76c-7.73,0-12.25,3.71-13.55,11.14L387.91,85.5z"/>
	<linearGradient id="SVGID_2_" gradientUnits="userSpaceOnUse" x1="456.7655" y1="8.3689" x2="494.5005" y2="112.0451">
		<stop  offset="0" style="stop-color:#6FC2AF"/>
		<stop  offset="0.3228" style="stop-color:#293785"/>
		<stop  offset="1" style="stop-color:#46A76C"/>
	</linearGradient>
	<path class="st2" d="M484.26,96.64c2.31,0,4.37-0.5,6.17-1.51l-0.75,17.01c-4.72,3.92-10.09,5.87-16.11,5.87
		c-9.14,0-15.05-2.11-17.76-6.32c-1.81-2.81-2.71-5.8-2.71-8.96c0-3.16,0.2-5.95,0.6-8.36l9.03-50.89h25.59l-8.43,47.42
		c-0.1,0.6-0.15,1.16-0.15,1.66C479.74,95.29,481.25,96.64,484.26,96.64z M465.74,18.96c0-6.42,1.43-11.11,4.29-14.08
		c2.86-2.96,7.3-4.44,13.33-4.44c8.43,0,12.64,3.71,12.64,11.14c0,6.32-1.43,10.94-4.29,13.85c-2.86,2.91-7.35,4.37-13.47,4.37
		C469.9,29.8,465.74,26.19,465.74,18.96z"/>
</g>
</svg>
